<svg xmlns="http://www.w3.org/2000/svg" viewBox="0 0 1200 460"><rect width="1200" height="460" fill="#fffef9"/><polyline points="160.2,207.5 980.2,207.0" fill="none" stroke="#374151" stroke-width="4"/><polyline points="160.9,208.1 289.1,244.4 439.5,275.3 590.0,285.1 759.3,260.9 980.5,206.8" fill="none" stroke="#374151" stroke-width="3"/><polyline points="160.7,206.8 289.6,209.0" fill="none" stroke="#374151" stroke-width="3"/><polyline points="274.1,215.4 289.7,207.7 272.9,201.4" fill="none" stroke="#374151" stroke-width="3"/><text x="244" y="186" font-family="Segoe UI,sans-serif" font-size="26" fill="#374151">u</text><polyline points="158.9,207.8 160.6,87.8" fill="none" stroke="#374151" stroke-width="3"/><polyline points="169.0,103.6 161.2,88.9 152.6,105.1" fill="none" stroke="#374151" stroke-width="3"/><text x="84" y="104" font-family="Segoe UI,sans-serif" font-size="26" fill="#374151">v</text><polyline points="123.9,244.8 96.7,212.0 97.9,168.5 133.8,137.0 182.6,139.4" fill="none" stroke="#374151" stroke-width="3"/><polyline points="182.0,140.7 203.2,152.9" fill="none" stroke="#374151" stroke-width="3"/><polyline points="185.2,152.1 203.7,153.4 194.4,139.7" fill="none" stroke="#374151" stroke-width="3"/><text x="30" y="202" font-family="Segoe UI,sans-serif" font-size="26" fill="#374151">θ</text><text x="370" y="374" font-family="Segoe UI,sans-serif" font-size="26" fill="#374151">deformata amplificata</text><text x="580" y="156" font-family="Segoe UI,sans-serif" font-size="26" fill="#374151">spostamenti + rotazioni</text></svg>